<svg viewBox="0 0 100 100" fill="none" xmlns="http://www.w3.org/2000/svg">
    <!-- Background Circle -->
    <circle cx="50" cy="50" r="48" fill="#1e293b"/>
    <circle cx="50" cy="50" r="45" fill="#334155"/>

    <!-- BIGGER Shoulders/Body -->
    <path d="M15 85 Q15 60 35 55 L65 55 Q85 60 85 85" fill="#a855f7"/>
    <path d="M20 80 Q20 68 35 65 L65 65 Q80 68 80 80" fill="#c084fc"/>

    <!-- Thicker Neck -->
    <rect x="40" y="50" width="20" height="17" rx="5" fill="#fdb5a4"/>

    <!-- Fuller Face -->
    <ellipse cx="50" cy="42" rx="25" ry="28" fill="#fdb5a4"/>

    <!-- Hair -->
    <path d="M25 35 Q25 12 50 10 Q75 12 75 35 Q75 22 50 20 Q25 22 25 35" fill="#1a1a2e"/>
    <path d="M28 30 Q28 18 50 16 Q72 18 72 30" fill="#2d2d44"/>

    <!-- Eyes -->
    <ellipse cx="40" cy="44" rx="4" ry="4.5" fill="#1e293b"/>
    <ellipse cx="60" cy="44" rx="4" ry="4.5" fill="#1e293b"/>
    <circle cx="41" cy="43" r="1.5" fill="white"/>
    <circle cx="61" cy="43" r="1.5" fill="white"/>

    <!-- Eyebrows -->
    <path d="M34 36 Q40 34 46 36" stroke="#1a1a2e" stroke-width="2" fill="none" stroke-linecap="round"/>
    <path d="M54 36 Q60 34 66 36" stroke="#1a1a2e" stroke-width="2" fill="none" stroke-linecap="round"/>

    <!-- Nose -->
    <path d="M50 47 L48 54 L52 54" stroke="#e8a690" stroke-width="1.5" fill="none" stroke-linecap="round"/>

    <!-- Mouth -->
    <path d="M40 60 Q50 66 60 60" stroke="#b85c5c" stroke-width="2.5" fill="none" stroke-linecap="round"/>

    <!-- Pizza Slice -->
    <g transform="translate(70,70) scale(0.7)">
        <!-- Crust -->
        <path d="M10 0 L20 18 Q10 22 0 18 Z" fill="#f59e0b"/>
        <!-- Cheese -->
        <path d="M10 2 L18 16 Q10 20 2 16 Z" fill="#fde68a"/>
        <!-- Pepperoni -->
        <circle cx="8" cy="10" r="2" fill="#dc2626"/>
        <circle cx="13" cy="13" r="2" fill="#dc2626"/>
    </g>

    <!-- Leader Badge -->
    <circle cx="75" cy="25" r="12" fill="#a855f7"/>
    <text x="75" y="29" text-anchor="middle" fill="white" font-size="10" font-weight="bold">L</text>
</svg>
