<svg viewBox="0 0 100 100" fill="none" xmlns="http://www.w3.org/2000/svg">
    <!-- Background Circle -->
    <circle cx="50" cy="50" r="48" fill="#1e293b"/>
    <circle cx="50" cy="50" r="45" fill="#334155"/>

    <!-- Shoulders/Body -->
    <path d="M20 85 Q20 65 35 60 L65 60 Q80 65 80 85" fill="#a855f7"/>
    <path d="M25 80 Q25 70 35 68 L65 68 Q75 70 75 80" fill="#c084fc"/>

    <!-- Neck -->
    <rect x="42" y="50" width="16" height="15" rx="3" fill="#fdb5a4"/>

    <!-- Face -->
    <ellipse cx="50" cy="42" rx="22" ry="26" fill="#fdb5a4"/>

    <!-- Hair - Confident slick back -->
    <path d="M28 35 Q28 15 50 12 Q72 15 72 35 Q72 25 50 22 Q28 25 28 35" fill="#1a1a2e"/>
    <path d="M30 30 Q30 20 50 18 Q70 20 70 30" fill="#2d2d44"/>

    <!-- Eyes - Confident look -->
    <ellipse cx="40" cy="42" rx="4" ry="5" fill="#1e293b"/>
    <ellipse cx="60" cy="42" rx="4" ry="5" fill="#1e293b"/>
    <circle cx="41" cy="41" r="1.5" fill="white"/>
    <circle cx="61" cy="41" r="1.5" fill="white"/>

    <!-- Eyebrows - Confident/neutral -->
    <path d="M35 35 Q40 33 45 35" stroke="#1a1a2e" stroke-width="2" fill="none" stroke-linecap="round"/>
    <path d="M55 35 Q60 33 65 35" stroke="#1a1a2e" stroke-width="2" fill="none" stroke-linecap="round"/>

    <!-- Nose -->
    <path d="M50 45 L48 52 L52 52" stroke="#e8a690" stroke-width="1.5" fill="none" stroke-linecap="round"/>

    <!-- Mouth - Confident smile -->
    <path d="M42 58 Q50 64 58 58" stroke="#b85c5c" stroke-width="2.5" fill="none" stroke-linecap="round"/>

    <!-- Leader Badge -->
    <circle cx="75" cy="25" r="12" fill="#a855f7"/>
    <text x="75" y="29" text-anchor="middle" fill="white" font-size="10" font-weight="bold">L</text>
</svg>
