<svg viewBox="0 0 100 100" fill="none" xmlns="http://www.w3.org/2000/svg">
    <!-- Background Circle -->
    <circle cx="50" cy="50" r="48" fill="#1e293b"/>
    <circle cx="50" cy="50" r="45" fill="#334155"/>

    <!-- Shoulders/Body -->
    <path d="M20 85 Q20 65 35 61 L65 61 Q80 65 80 85" fill="#2563eb"/>
    <path d="M25 80 Q25 70 35 68 L65 68 Q75 70 75 80" fill="#3b82f6"/>

    <!-- Neck -->
    <rect x="42" y="50" width="16" height="15" rx="3" fill="#e8c4a8"/>

    <!-- Face -->
    <ellipse cx="50" cy="42" rx="22" ry="26" fill="#e8c4a8"/>

<!-- Full Black Spike Hair -->
<path d="
M25 40
Q25 18 40 12
L45 20
L50 10
L55 20
L60 12
Q75 18 75 40
Q75 25 50 22
Q25 25 25 40
" fill="#000"/>

<path d="
M28 35
L35 22
L42 28
L50 18
L58 28
L65 22
L72 35
Z
" fill="#000"/>
    
    <!-- Eyes -->
    <ellipse cx="40" cy="42" rx="4" ry="5" fill="#1e293b"/>
    <ellipse cx="60" cy="42" rx="4" ry="5" fill="#1e293b"/>
    <circle cx="41" cy="41" r="1.5" fill="white"/>
    <circle cx="61" cy="41" r="1.5" fill="white"/>

    <!-- Eyebrows -->
    <path d="M34 35 Q40 32 46 35" stroke="#111" stroke-width="2" fill="none" stroke-linecap="round"/>
    <path d="M54 35 Q60 32 66 35" stroke="#111" stroke-width="2" fill="none" stroke-linecap="round"/>

    <!-- Nose -->
    <path d="M50 45 L47 52 L53 52" stroke="#d4a890" stroke-width="1.5" fill="none" stroke-linecap="round"/>

    <!-- Mouth -->
    <path d="M43 58 Q50 56 57 58" stroke="#a86c5c" stroke-width="2" fill="none" stroke-linecap="round"/>

    <!-- AL Badge -->
    <circle cx="75" cy="25" r="12" fill="#2563eb"/>
    <text x="75" y="29" text-anchor="middle" fill="white" font-size="8" font-weight="bold">AL</text>
</svg>
