<svg viewBox="0 0 100 100" fill="none" xmlns="http://www.w3.org/2000/svg">
    <!-- Background Circle -->
    <circle cx="50" cy="50" r="48" fill="#1e293b"/>
    <circle cx="50" cy="50" r="45" fill="#334155"/>

    <!-- Shoulders/Body -->
    <path d="M20 85 Q20 65 35 60 L65 60 Q80 65 80 85" fill="#3b82f6"/>
    <path d="M25 80 Q25 70 35 68 L65 68 Q75 70 75 80" fill="#60a5fa"/>

    <!-- Neck (Dark Skin) -->
    <rect x="42" y="50" width="16" height="15" rx="3" fill="#4b2e1a"/>

    <!-- Face (Dark Skin) -->
    <ellipse cx="50" cy="42" rx="22" ry="26" fill="#4b2e1a"/>

    <!-- Curly Black Hair -->
    <path d="M26 40 Q26 14 50 10 Q74 14 74 40 Q74 28 50 24 Q26 28 26 40" fill="#000"/>
    <circle cx="35" cy="22" r="5" fill="#000"/>
    <circle cx="45" cy="18" r="5" fill="#000"/>
    <circle cx="55" cy="18" r="5" fill="#000"/>
    <circle cx="65" cy="22" r="5" fill="#000"/>

    <!-- Eyes -->
    <ellipse cx="40" cy="42" rx="4" ry="5" fill="#1e293b"/>
    <ellipse cx="60" cy="42" rx="4" ry="5" fill="#1e293b"/>
    <circle cx="41" cy="41" r="1.5" fill="white"/>
    <circle cx="61" cy="41" r="1.5" fill="white"/>

    <!-- Eyebrows -->
    <path d="M35 35 Q40 32 45 35" stroke="#000" stroke-width="2" fill="none" stroke-linecap="round"/>
    <path d="M55 35 Q60 32 65 35" stroke="#000" stroke-width="2" fill="none" stroke-linecap="round"/>

    <!-- Nose -->
    <path d="M50 45 L47 52 L53 52" stroke="#2e1c10" stroke-width="1.5" fill="none" stroke-linecap="round"/>

    <!-- Mouth -->
    <path d="M43 58 Q50 62 57 58" stroke="#2e1c10" stroke-width="2" fill="none" stroke-linecap="round"/>

    <!-- Badminton Racket -->
    <g transform="translate(70,70) scale(0.7)">
        <ellipse cx="10" cy="5" rx="6" ry="8" stroke="#cbd5e1" stroke-width="2" fill="none"/>
        <line x1="10" y1="13" x2="10" y2="22" stroke="#cbd5e1" stroke-width="2"/>
    </g>

    <!-- AL Badge -->
    <circle cx="75" cy="25" r="12" fill="#3b82f6"/>
    <text x="75" y="29" text-anchor="middle" fill="white" font-size="8" font-weight="bold">AL</text>
</svg>
