<svg viewBox="0 0 100 100" fill="none" xmlns="http://www.w3.org/2000/svg">

    <!-- Background -->
    <circle cx="50" cy="50" r="48" fill="#1e293b"/>
    <circle cx="50" cy="50" r="45" fill="#334155"/>

    <!-- Body -->
    <path d="M18 85 Q18 62 35 58 L65 58 Q82 62 82 85" fill="#7c3aed"/>
    <path d="M23 80 Q23 70 35 68 L65 68 Q77 70 77 80" fill="#8b5cf6"/>

    <!-- Neck -->
    <rect x="42" y="48" width="16" height="17" rx="3" fill="#e8b89e"/>

    <!-- Face -->
    <ellipse cx="50" cy="42" rx="22" ry="26" fill="#e8b89e"/>

    <!-- BLACK Hair -->
    <path d="M28 38 Q28 16 50 12 Q72 16 72 38 Q72 26 50 20 Q28 26 28 38" fill="#111"/>
    <path d="M30 32 Q30 20 50 18 Q70 20 70 32" fill="#1a1a1a"/>

    <!-- Eyebrows -->
    <path d="M35 36 Q40 33 45 36" stroke="#111" stroke-width="2" fill="none" stroke-linecap="round"/>
    <path d="M55 36 Q60 33 65 36" stroke="#111" stroke-width="2" fill="none" stroke-linecap="round"/>

    <!-- SQUINT EYES -->
    <path d="M36 43 Q40 45 44 43" stroke="#1e293b" stroke-width="2" stroke-linecap="round"/>
    <path d="M56 43 Q60 45 64 43" stroke="#1e293b" stroke-width="2" stroke-linecap="round"/>

    <!-- Regular Glasses (Black Frame) -->
    <circle cx="40" cy="42" r="7" stroke="#000" stroke-width="2" fill="none"/>
    <circle cx="60" cy="42" r="7" stroke="#000" stroke-width="2" fill="none"/>
    <rect x="47" y="41" width="6" height="2" fill="#000"/>

    <!-- Nose -->
    <path d="M50 45 L47 52 L53 52" stroke="#d4a088" stroke-width="1.5" fill="none" stroke-linecap="round"/>

    <!-- Mouth -->
    <path d="M42 58 Q50 64 58 58" stroke="#b87870" stroke-width="2" fill="none" stroke-linecap="round"/>

    <!-- Dumbbell -->
    <g transform="translate(70,68) scale(0.7)">
        <rect x="2" y="6" width="20" height="3" fill="#111"/>
        <rect x="0" y="3" width="4" height="10" rx="1" fill="#555"/>
        <rect x="18" y="3" width="4" height="10" rx="1" fill="#555"/>
    </g>

    <!-- Leader Badge -->
    <circle cx="75" cy="25" r="12" fill="#7c3aed"/>
    <text x="75" y="29" text-anchor="middle" fill="white" font-size="10" font-weight="bold">L</text>

</svg>
