<svg viewBox="0 0 100 100" fill="none" xmlns="http://www.w3.org/2000/svg">
    <!-- Background Circle -->
    <circle cx="50" cy="50" r="48" fill="#1e293b"/>
    <circle cx="50" cy="50" r="45" fill="#334155"/>

    <!-- Slim Shoulders/Body -->
    <path d="M25 85 Q25 68 40 63 L60 63 Q75 68 75 85" fill="#06b6d4"/>
    <path d="M30 80 Q30 74 40 72 L60 72 Q70 74 70 80" fill="#22d3ee"/>

    <!-- Neck -->
    <rect x="44" y="50" width="12" height="15" rx="3" fill="#f0c4a8"/>

    <!-- Face -->
    <ellipse cx="50" cy="42" rx="22" ry="26" fill="#f0c4a8"/>

    <!-- Black Hair -->
    <path d="M26 40 Q26 16 50 12 Q74 16 74 40 Q74 28 50 22 Q26 28 26 40" fill="#000"/>
    <path d="M28 34 Q28 20 50 18 Q72 20 72 34" fill="#000"/>

    <!-- Hair strand -->
    <path d="M40 20 Q45 16 50 20 Q55 16 60 20" stroke="#000" stroke-width="2" fill="none"/>

    <!-- Eyes -->
    <ellipse cx="40" cy="42" rx="4" ry="5" fill="#1e293b"/>
    <ellipse cx="60" cy="42" rx="4" ry="5" fill="#1e293b"/>
    <circle cx="41" cy="41" r="1.5" fill="white"/>
    <circle cx="61" cy="41" r="1.5" fill="white"/>

    <!-- Eyebrows -->
    <path d="M34 36 Q40 34 46 36" stroke="#000" stroke-width="1.5" fill="none" stroke-linecap="round"/>
    <path d="M54 36 Q60 34 66 36" stroke="#000" stroke-width="1.5" fill="none" stroke-linecap="round"/>

    <!-- Nose -->
    <path d="M50 45 L48 51 L52 51" stroke="#e0b098" stroke-width="1.5" fill="none" stroke-linecap="round"/>

    <!-- Mouth -->
    <path d="M42 58 Q50 63 58 58" stroke="#c48b7c" stroke-width="2" fill="none" stroke-linecap="round"/>

</svg>
