<svg viewBox="0 0 100 100" fill="none" xmlns="http://www.w3.org/2000/svg">
    <!-- Background Circle -->
    <circle cx="50" cy="50" r="48" fill="#1e293b"/>
    <circle cx="50" cy="50" r="45" fill="#334155"/>

    <!-- Shoulders/Body -->
    <path d="M20 85 Q20 65 35 61 L65 61 Q80 65 80 85" fill="#059669"/>
    <path d="M25 80 Q25 70 35 68 L65 68 Q75 70 75 80" fill="#10b981"/>

    <!-- Neck (Brown Skin) -->
    <rect x="42" y="50" width="16" height="15" rx="3" fill="#8d5524"/>

    <!-- Face (Brown Skin) -->
    <ellipse cx="50" cy="42" rx="22" ry="26" fill="#8d5524"/>

    <!-- Black Hair -->
    <path d="M28 38 Q28 18 50 14 Q72 18 72 38 Q72 26 50 22 Q28 26 28 38" fill="#000"/>
    <path d="M30 32 Q30 22 50 20 Q70 22 70 32" fill="#000"/>

    <!-- Hairline -->
    <path d="M32 32 L68 32" stroke="#000" stroke-width="2"/>

    <!-- Eyes -->
    <ellipse cx="40" cy="42" rx="4" ry="5" fill="#1e293b"/>
    <ellipse cx="60" cy="42" rx="4" ry="5" fill="#1e293b"/>
    <circle cx="41" cy="41" r="1.5" fill="white"/>
    <circle cx="61" cy="41" r="1.5" fill="white"/>

    <!-- Eyebrows -->
    <path d="M34 35 Q40 32 46 35" stroke="#000" stroke-width="2" fill="none" stroke-linecap="round"/>
    <path d="M54 35 Q60 32 66 35" stroke="#000" stroke-width="2" fill="none" stroke-linecap="round"/>

    <!-- Nose -->
    <path d="M50 45 L47 52 L53 52" stroke="#5c3a1e" stroke-width="1.5" fill="none" stroke-linecap="round"/>

    <!-- Mouth -->
    <path d="M43 58 L57 58" stroke="#5c3a1e" stroke-width="2.5" fill="none" stroke-linecap="round"/>
</svg>
